<svg width="93" height="66" viewBox="0 0 93 66" fill="none" xmlns="http://www.w3.org/2000/svg">
<g opacity="0.1">
<path d="M28.7879 65.95C10.4529 65.95 0.19293 53.03 0.19293 33.175C0.19293 13.415 10.4529 0.399999 28.7879 0.399999C47.0279 0.399999 57.2879 13.415 57.2879 33.175C57.2879 53.03 47.0279 65.95 28.7879 65.95ZM28.7879 52.175C38.4779 52.175 42.0879 48.28 42.0879 33.175C42.0879 18.07 38.4779 14.175 28.7879 14.175C19.0029 14.175 15.3929 18.07 15.3929 33.175C15.3929 48.28 19.0029 52.175 28.7879 52.175ZM92.3481 65H78.1931V19.4H63.8481V9.235H66.6981C72.6831 9.235 76.3881 7.05 79.4281 1.35H92.3481V65Z" fill="url(#paint0_linear_1_336)"/>
<path d="M28.7879 65.95C10.4529 65.95 0.19293 53.03 0.19293 33.175C0.19293 13.415 10.4529 0.399999 28.7879 0.399999C47.0279 0.399999 57.2879 13.415 57.2879 33.175C57.2879 53.03 47.0279 65.95 28.7879 65.95ZM28.7879 52.175C38.4779 52.175 42.0879 48.28 42.0879 33.175C42.0879 18.07 38.4779 14.175 28.7879 14.175C19.0029 14.175 15.3929 18.07 15.3929 33.175C15.3929 48.28 19.0029 52.175 28.7879 52.175ZM92.3481 65H78.1931V19.4H63.8481V9.235H66.6981C72.6831 9.235 76.3881 7.05 79.4281 1.35H92.3481V65Z" fill="url(#paint1_linear_1_336)"/>
</g>
<defs>
<linearGradient id="paint0_linear_1_336" x1="46" y1="-25" x2="46" y2="82" gradientUnits="userSpaceOnUse">
<stop stop-color="white"/>
<stop offset="1" stop-color="white" stop-opacity="0"/>
</linearGradient>
<linearGradient id="paint1_linear_1_336" x1="46" y1="-25" x2="46.6225" y2="94.4989" gradientUnits="userSpaceOnUse">
<stop stop-color="white"/>
<stop offset="1" stop-color="white" stop-opacity="0"/>
</linearGradient>
</defs>
</svg>
