<svg width="118" height="66" viewBox="0 0 118 66" fill="none" xmlns="http://www.w3.org/2000/svg">
<g opacity="0.1">
<path d="M29.578 65.95C11.243 65.95 0.982969 53.03 0.982969 33.175C0.982969 13.415 11.243 0.399999 29.578 0.399999C47.818 0.399999 58.078 13.415 58.078 33.175C58.078 53.03 47.818 65.95 29.578 65.95ZM29.578 52.175C39.268 52.175 42.878 48.28 42.878 33.175C42.878 18.07 39.268 14.175 29.578 14.175C19.793 14.175 16.183 18.07 16.183 33.175C16.183 48.28 19.793 52.175 29.578 52.175ZM117.75 65H67.9698V56.45C67.9698 44.1 76.3298 38.97 85.1648 34.695L96.1848 29.47C101.79 26.81 103.785 24.72 103.785 20.54C103.785 15.98 101.695 13.415 93.2398 13.415C84.0248 13.415 82.1248 15.98 82.1248 22.82V24.435H67.8748V22.915C67.8748 10.565 75.4748 0.399999 94.3798 0.399999C111.195 0.399999 117.94 8.95 117.94 20.445C117.94 31.465 110.15 37.07 101.885 40.775L92.2898 44.955C87.0648 47.33 83.1698 49.325 83.1698 52.365L93.4298 52.175H117.75V65Z" fill="url(#paint0_linear_1_350)"/>
<path d="M29.578 65.95C11.243 65.95 0.982969 53.03 0.982969 33.175C0.982969 13.415 11.243 0.399999 29.578 0.399999C47.818 0.399999 58.078 13.415 58.078 33.175C58.078 53.03 47.818 65.95 29.578 65.95ZM29.578 52.175C39.268 52.175 42.878 48.28 42.878 33.175C42.878 18.07 39.268 14.175 29.578 14.175C19.793 14.175 16.183 18.07 16.183 33.175C16.183 48.28 19.793 52.175 29.578 52.175ZM117.75 65H67.9698V56.45C67.9698 44.1 76.3298 38.97 85.1648 34.695L96.1848 29.47C101.79 26.81 103.785 24.72 103.785 20.54C103.785 15.98 101.695 13.415 93.2398 13.415C84.0248 13.415 82.1248 15.98 82.1248 22.82V24.435H67.8748V22.915C67.8748 10.565 75.4748 0.399999 94.3798 0.399999C111.195 0.399999 117.94 8.95 117.94 20.445C117.94 31.465 110.15 37.07 101.885 40.775L92.2898 44.955C87.0648 47.33 83.1698 49.325 83.1698 52.365L93.4298 52.175H117.75V65Z" fill="url(#paint1_linear_1_350)"/>
</g>
<defs>
<linearGradient id="paint0_linear_1_350" x1="59.5" y1="-25" x2="59.5" y2="82" gradientUnits="userSpaceOnUse">
<stop stop-color="white"/>
<stop offset="1" stop-color="white" stop-opacity="0"/>
</linearGradient>
<linearGradient id="paint1_linear_1_350" x1="59.5" y1="-25" x2="60" y2="94.5" gradientUnits="userSpaceOnUse">
<stop stop-color="white"/>
<stop offset="1" stop-color="white" stop-opacity="0"/>
</linearGradient>
</defs>
</svg>
