<svg width="120" height="66" viewBox="0 0 120 66" fill="none" xmlns="http://www.w3.org/2000/svg">
<path opacity="0.1" d="M29.578 65.95C11.243 65.95 0.982969 53.03 0.982969 33.175C0.982969 13.415 11.243 0.399999 29.578 0.399999C47.818 0.399999 58.078 13.415 58.078 33.175C58.078 53.03 47.818 65.95 29.578 65.95ZM29.578 52.175C39.268 52.175 42.878 48.28 42.878 33.175C42.878 18.07 39.268 14.175 29.578 14.175C19.793 14.175 16.183 18.07 16.183 33.175C16.183 48.28 19.793 52.175 29.578 52.175ZM93.5026 65.95C74.3126 65.95 67.1876 58.16 67.1876 45.525V43.435H81.1526V45.335C81.1526 51.13 83.3376 52.84 93.5026 52.84C101.293 52.84 105.283 51.51 105.283 45.62C105.283 39.35 102.623 38.115 96.4476 38.115H83.0526V26.525H94.9276C100.628 26.525 102.813 25.385 102.813 20.255C102.813 15.22 99.2026 13.51 92.5526 13.51C84.0976 13.51 81.1526 15.22 81.1526 21.015V21.87H67.1876V20.825C67.1876 8.19 76.5926 0.399999 92.9326 0.399999C107.943 0.399999 117.063 6.195 117.063 17.595C117.063 25.1 113.453 30.23 105.093 31.18V31.75C114.213 32.605 119.723 38.115 119.723 47.52C119.723 59.87 109.558 65.95 93.5026 65.95Z" fill="url(#paint0_linear_1_384)"/>
<defs>
<linearGradient id="paint0_linear_1_384" x1="59.5" y1="-25" x2="60" y2="94.5" gradientUnits="userSpaceOnUse">
<stop stop-color="white"/>
<stop offset="1" stop-color="white" stop-opacity="0"/>
</linearGradient>
</defs>
</svg>
