<svg width="99" height="99" viewBox="0 0 99 99" fill="none" xmlns="http://www.w3.org/2000/svg">
<circle cx="49.5" cy="49.5" r="49.5" fill="white" fill-opacity="0.05"/>
<circle cx="49.5" cy="49.5" r="49" stroke="url(#paint0_linear_1_319)" stroke-opacity="0.1"/>
<mask id="mask0_1_319" style="mask-type:luminance" maskUnits="userSpaceOnUse" x="30" y="29" width="40" height="40">
<path d="M69.4872 29.7991H30.5128V68.7734H69.4872V29.7991Z" fill="white"/>
</mask>
<g mask="url(#mask0_1_319)">
<mask id="mask1_1_319" style="mask-type:luminance" maskUnits="userSpaceOnUse" x="29" y="29" width="41" height="41">
<path d="M69.56 29.7305H29.4222V69.278H69.56V29.7305Z" fill="white"/>
</mask>
<g mask="url(#mask1_1_319)">
<mask id="mask2_1_319" style="mask-type:luminance" maskUnits="userSpaceOnUse" x="30" y="29" width="40" height="40">
<path d="M69.5597 29.7435H30.5853V68.7179H69.5597V29.7435Z" fill="white"/>
</mask>
<g mask="url(#mask2_1_319)">
<path d="M49.8274 48.4596C52.3985 48.4596 54.6248 47.5373 56.4443 45.7178C58.2631 43.8987 59.1856 41.6728 59.1856 39.1012C59.1856 36.5306 58.2635 34.3044 56.444 32.4846C54.6245 30.6657 52.3982 29.7435 49.8274 29.7435C47.2558 29.7435 45.0299 30.6657 43.2107 32.4849C41.3915 34.3041 40.469 36.5303 40.469 39.1012C40.469 41.6728 41.3915 43.899 43.2107 45.7181C45.0305 47.537 47.2567 48.4596 49.8274 48.4596ZM44.8209 34.0948C46.2168 32.6989 47.8543 32.0204 49.8274 32.0204C51.8001 32.0204 53.4378 32.6989 54.834 34.0948C56.2299 35.491 56.9088 37.1288 56.9088 39.1012C56.9088 41.0742 56.2299 42.7118 54.834 44.108C53.4378 45.5041 51.8001 46.1827 49.8274 46.1827C47.8548 46.1827 46.2174 45.5039 44.8209 44.108C43.4247 42.7121 42.7459 41.0742 42.7459 39.1012C42.7459 37.1288 43.4247 35.491 44.8209 34.0948Z" fill="#009CFF"/>
<path d="M66.2019 59.6199C66.1495 58.8629 66.0433 58.0371 65.8871 57.165C65.7294 56.2863 65.5264 55.4557 65.2833 54.6966C65.0319 53.9119 64.6907 53.1371 64.2683 52.3945C63.8305 51.6237 63.3159 50.9527 62.7384 50.4005C62.1346 49.8227 61.3953 49.3582 60.5404 49.0193C59.6884 48.6823 58.7443 48.5115 57.7344 48.5115C57.3378 48.5115 56.9542 48.6743 56.2134 49.1566C55.7575 49.4539 55.2242 49.7978 54.6289 50.1781C54.12 50.5024 53.4305 50.8062 52.5789 51.0813C51.748 51.3502 50.9043 51.4865 50.0714 51.4865C49.239 51.4865 48.3953 51.3502 47.5638 51.0813C46.7131 50.8065 46.0233 50.5027 45.5152 50.1784C44.9257 49.8016 44.392 49.4578 43.9294 49.1563C43.1891 48.674 42.8056 48.5112 42.4089 48.5112C41.3987 48.5112 40.4549 48.6823 39.6032 49.0196C38.7489 49.3579 38.0093 49.8224 37.4049 50.4007C36.8274 50.9533 36.3128 51.6241 35.8753 52.3945C35.4535 53.1371 35.112 53.9116 34.8606 54.6969C34.6179 55.4561 34.4148 56.2863 34.2571 57.165C34.1006 58.0358 33.9948 58.862 33.9423 59.6209C33.8907 60.3628 33.8646 61.135 33.8646 61.9152C33.8646 63.9434 34.5094 65.5854 35.7807 66.7963C37.0364 67.9912 38.6976 68.5971 40.7184 68.5971H59.4267C61.4469 68.5971 63.108 67.9912 64.364 66.7963C65.6357 65.5862 66.2804 63.9437 66.2804 61.9149C66.2801 61.132 66.2538 60.3598 66.2019 59.6199ZM62.7942 65.1466C61.9644 65.9364 60.8629 66.3203 59.4264 66.3203H40.7184C39.2816 66.3203 38.1801 65.9364 37.3506 65.1469C36.5369 64.3724 36.1415 63.315 36.1415 61.9152C36.1415 61.1872 36.1655 60.4684 36.2135 59.7783C36.2604 59.1013 36.3561 58.3575 36.4981 57.5672C36.6383 56.7867 36.8168 56.0542 37.029 55.3911C37.2327 54.7552 37.5104 54.1257 37.8549 53.5191C38.1836 52.9411 38.5619 52.4452 38.9792 52.0456C39.3696 51.6718 39.8617 51.3659 40.4416 51.1365C40.9778 50.9243 41.5804 50.8081 42.2346 50.7905C42.3144 50.8329 42.4563 50.9138 42.6864 51.0638C43.1545 51.3689 43.694 51.7169 44.2904 52.0978C44.9627 52.5264 45.8288 52.9136 46.8637 53.2476C47.9217 53.5897 49.0006 53.7634 50.0716 53.7634C51.1427 53.7634 52.222 53.5897 53.2793 53.2479C54.3151 52.9133 55.1809 52.5264 55.8541 52.0972C56.4644 51.7071 56.9888 51.3692 57.4569 51.0638C57.687 50.9141 57.8289 50.8329 57.9086 50.7905C58.5632 50.8081 59.1659 50.9243 59.7024 51.1365C60.2819 51.3659 60.774 51.6722 61.1643 52.0456C61.5818 52.4449 61.96 52.9409 62.2887 53.5194C62.6335 54.1257 62.9115 54.7555 63.1149 55.3908C63.3274 56.0548 63.5062 56.787 63.6461 57.5669C63.7878 58.3587 63.8838 59.1027 63.9307 59.7786C63.979 60.4661 64.0033 61.1852 64.0036 61.9152C64.0033 63.3153 63.6078 64.3724 62.7942 65.1466Z" fill="#009CFF"/>
</g>
</g>
</g>
<defs>
<linearGradient id="paint0_linear_1_319" x1="49.5" y1="0" x2="49.5" y2="99" gradientUnits="userSpaceOnUse">
<stop stop-color="white"/>
<stop offset="1" stop-color="white" stop-opacity="0"/>
</linearGradient>
</defs>
</svg>
