<svg width="723" height="617" viewBox="0 0 723 617" fill="none" xmlns="http://www.w3.org/2000/svg">
<g opacity="0.8">
<path d="M373.745 188.003L291.817 398.652C291.718 398.917 291.551 399.152 291.333 399.333C291.116 399.515 290.853 399.638 290.572 399.69C290.29 399.742 289.999 399.722 289.725 399.631C289.451 399.54 289.203 399.382 289.005 399.172L157.331 255.699C154.739 252.878 154.149 249.688 155.56 246.127L252.068 1.73402C253.087 0.578007 254.001 0 254.811 0C410.427 0.0231203 566.205 0.0463083 722.144 0.0694286C722.297 0.071585 722.447 0.114128 722.578 0.192728C722.71 0.271328 722.818 0.383209 722.892 0.51701C722.966 0.650811 723.003 0.801698 723 0.954538C722.997 1.10738 722.953 1.25673 722.874 1.3873L622.721 158.143C622.465 158.557 622.108 158.899 621.682 159.136C621.257 159.373 620.778 159.496 620.291 159.495L386.138 159.357C385.803 159.356 385.474 159.458 385.196 159.65C384.917 159.842 384.701 160.114 384.576 160.432L373.745 188.003Z" fill="url(#paint0_linear_1_37)"/>
<path d="M488.94 277.34L567.778 363.902C568.538 364.729 568.97 365.802 568.992 366.919L569.027 368.515L470.193 615.682C470.031 616.063 469.76 616.387 469.414 616.615C469.069 616.843 468.664 616.965 468.249 616.965L0.777036 617C0.637003 616.996 0.500439 616.956 0.381025 616.883C0.26161 616.81 0.163509 616.706 0.096677 616.583C0.0298448 616.46 -0.00336946 616.322 0.000269941 616.182C0.00390934 616.042 0.0443047 615.906 0.117442 615.786L100.652 458.719C100.822 458.453 101.061 458.235 101.346 458.083C101.631 457.932 101.954 457.852 102.284 457.852L335.951 457.99C336.739 457.988 337.508 457.749 338.159 457.303C338.809 456.858 339.31 456.227 339.596 455.493L431.695 218.002C431.795 217.758 431.955 217.542 432.159 217.376C432.363 217.209 432.604 217.096 432.861 217.047C433.117 216.999 433.381 217.016 433.626 217.098C433.871 217.18 434.091 217.324 434.264 217.516L488.94 277.34Z" fill="url(#paint1_linear_1_37)"/>
</g>
<defs>
<linearGradient id="paint0_linear_1_37" x1="546.395" y1="-66.4789" x2="361.843" y2="617.093" gradientUnits="userSpaceOnUse">
<stop stop-color="#019DFF"/>
<stop offset="0.595433" stop-color="#0155FF"/>
<stop offset="1" stop-color="#091C45"/>
</linearGradient>
<linearGradient id="paint1_linear_1_37" x1="546.395" y1="-66.4789" x2="361.843" y2="617.093" gradientUnits="userSpaceOnUse">
<stop stop-color="#019DFF"/>
<stop offset="0.595433" stop-color="#0155FF"/>
<stop offset="1" stop-color="#091C45"/>
</linearGradient>
</defs>
</svg>
