<svg width="269" height="269" viewBox="0 0 269 269" fill="none" xmlns="http://www.w3.org/2000/svg">
<path d="M69.0533 84.6366C41.6739 120.622 48.6508 171.99 84.6366 199.369C120.622 226.749 171.99 219.772 199.369 183.786C226.749 147.8 219.772 96.4327 183.786 69.0533C147.8 41.6739 96.4327 48.6508 69.0533 84.6366Z" fill="url(#paint0_radial_1_436)"/>
<path d="M132.946 122.599L128.633 144.22C128.628 144.247 128.615 144.273 128.598 144.294C128.58 144.315 128.556 144.331 128.53 144.341C128.504 144.351 128.475 144.354 128.447 144.35C128.419 144.346 128.392 144.335 128.37 144.319L113.184 132.827C112.885 132.601 112.773 132.305 112.849 131.939L117.995 106.829C118.073 106.7 118.152 106.629 118.23 106.615C133.274 103.932 148.334 101.247 163.41 98.5588C163.425 98.5563 163.44 98.5578 163.454 98.5631C163.468 98.5684 163.48 98.5772 163.49 98.5888C163.499 98.6004 163.506 98.6142 163.508 98.6289C163.51 98.6436 163.509 98.6587 163.503 98.6726L156.505 115.438C156.487 115.483 156.458 115.522 156.421 115.552C156.384 115.582 156.34 115.602 156.293 115.61L133.654 119.637C133.622 119.642 133.592 119.658 133.568 119.681C133.544 119.704 133.528 119.734 133.521 119.767L132.946 122.599Z" fill="url(#paint1_linear_1_436)"/>
<path d="M145.612 129.181L154.716 136.125C154.804 136.192 154.864 136.287 154.885 136.394L154.916 136.546L149.593 161.963C149.583 162.002 149.563 162.038 149.533 162.066C149.504 162.094 149.467 162.112 149.427 162.12L104.235 170.188C104.221 170.19 104.207 170.189 104.195 170.184C104.182 170.179 104.171 170.171 104.162 170.16C104.153 170.149 104.148 170.137 104.146 170.123C104.144 170.11 104.145 170.096 104.15 170.083L111.18 153.281C111.192 153.252 111.212 153.227 111.237 153.208C111.262 153.188 111.291 153.175 111.323 153.169L133.915 149.151C133.991 149.137 134.062 149.101 134.117 149.047C134.172 148.993 134.21 148.924 134.225 148.849L139.062 124.477C139.068 124.452 139.08 124.428 139.096 124.409C139.113 124.389 139.135 124.374 139.159 124.365C139.183 124.356 139.208 124.353 139.234 124.357C139.259 124.36 139.282 124.37 139.302 124.386L145.612 129.181Z" fill="url(#paint2_linear_1_436)"/>
<defs>
<radialGradient id="paint0_radial_1_436" cx="0" cy="0" r="1" gradientUnits="userSpaceOnUse" gradientTransform="translate(106.474 152.107) rotate(-32.2417) scale(113.112 116.625)">
<stop stop-color="#29353E"/>
<stop offset="0.806024" stop-color="#101417"/>
<stop offset="0.928916" stop-color="#0278FF"/>
<stop offset="1" stop-color="#029DFF"/>
</radialGradient>
<linearGradient id="paint1_linear_1_436" x1="147.844" y1="96.7905" x2="139.276" y2="163.986" gradientUnits="userSpaceOnUse">
<stop stop-color="#151B1F"/>
<stop offset="1" stop-color="#192025"/>
</linearGradient>
<linearGradient id="paint2_linear_1_436" x1="147.844" y1="96.7905" x2="139.276" y2="163.986" gradientUnits="userSpaceOnUse">
<stop stop-color="#151B1F"/>
<stop offset="1" stop-color="#192025"/>
</linearGradient>
</defs>
</svg>
