<svg width="26" height="26" viewBox="0 0 26 26" fill="none" xmlns="http://www.w3.org/2000/svg">
<path d="M18.2446 6.86162L1.16196 11.1533C1.01505 11.1902 0.878465 11.2601 0.7626 11.3577C0.341431 11.7124 0.287572 12.3414 0.642305 12.7626L0.660842 12.7846C0.747029 12.8869 0.845442 12.9783 0.953876 13.0567L6.02825 16.7242C6.16686 16.8244 6.35311 16.8278 6.49527 16.7328L12.0779 13.0003C12.2715 12.8709 12.5315 12.9077 12.6815 13.0859C12.8316 13.264 12.8237 13.5264 12.6632 13.6952L8.03602 18.5621C7.91821 18.686 7.88987 18.8701 7.96504 19.0237L10.7165 24.6477C10.7753 24.7679 10.8486 24.8804 10.9348 24.9828L10.9534 25.0048C11.3081 25.4259 11.9371 25.4798 12.3583 25.1251C12.4741 25.0275 12.5662 24.9048 12.6276 24.7662L19.7609 8.6619C19.9637 8.20422 19.8877 7.67095 19.5652 7.28802C19.2427 6.9051 18.7301 6.73962 18.2446 6.86162Z" fill="white"/>
</svg>
