<svg width="49" height="38" viewBox="0 0 49 38" fill="none" xmlns="http://www.w3.org/2000/svg">
<path d="M15.4998 0.00503023C15.307 0.0642788 15.118 0.116944 14.9327 0.163026C13.3584 0.557076 12.1428 1.37339 11.2861 2.61197C10.9607 3.08313 10.6499 3.73017 10.3536 4.55307C6.99903 13.8692 3.62045 23.2366 0.217885 32.6552C-0.649684 35.0534 1.18279 37.8367 3.77985 37.8352C13.3273 37.8296 22.778 37.8296 32.1317 37.8352C34.0996 37.8367 35.8968 36.7688 37.0225 35.1733C37.284 34.8028 37.6174 34.0598 38.0227 32.9444C38.4647 31.7284 38.903 30.5115 39.3375 29.2936" fill="#009CFF"/>
<path d="M39.3375 29.2936C42.1569 21.4953 44.9713 13.6948 47.7805 5.89181C48.0842 5.04822 48.2408 4.44304 48.2502 4.07626C48.2953 2.32279 47.2303 0.672291 45.522 0.155982C45.1825 0.0534722 44.6699 0.00174852 43.9843 0.000808065C34.4867 -0.00107284 24.9918 0.000327963 15.4998 0.00503023" fill="#009CFF"/>
<path d="M24.6255 14.0131L21.2963 22.5816C21.2922 22.5924 21.2855 22.6019 21.2766 22.6093C21.2678 22.6167 21.2571 22.6217 21.2457 22.6238C21.2342 22.6259 21.2224 22.6251 21.2113 22.6214C21.2001 22.6177 21.19 22.6113 21.182 22.6027L15.8313 16.7667C15.726 16.652 15.702 16.5222 15.7593 16.3774L19.681 6.43632C19.7224 6.3893 19.7596 6.36578 19.7925 6.36578C26.1161 6.36672 32.4463 6.36767 38.7831 6.36861C38.7893 6.3687 38.7954 6.37043 38.8007 6.37362C38.806 6.37682 38.8104 6.38137 38.8134 6.38681C38.8164 6.39226 38.818 6.39839 38.8178 6.40461C38.8177 6.41083 38.8159 6.4169 38.8127 6.42221L34.7429 12.7985C34.7325 12.8153 34.718 12.8292 34.7007 12.8389C34.6834 12.8485 34.6639 12.8535 34.6441 12.8535L25.1291 12.8479C25.1155 12.8478 25.1021 12.852 25.0908 12.8598C25.0795 12.8676 25.0707 12.8787 25.0656 12.8916L24.6255 14.0131Z" fill="white"/>
<path d="M29.3058 17.6471L32.5095 21.1681C32.5404 21.2018 32.5579 21.2454 32.5588 21.2909L32.5603 21.3557L28.5441 31.4097C28.5374 31.4251 28.5264 31.4383 28.5124 31.4476C28.4983 31.4569 28.4819 31.4618 28.4651 31.4619L9.46883 31.4633C9.46314 31.4631 9.45759 31.4615 9.45274 31.4585C9.44789 31.4555 9.4439 31.4513 9.44118 31.4463C9.43847 31.4413 9.43712 31.4357 9.43727 31.43C9.43741 31.4243 9.43906 31.4188 9.44203 31.4139L13.5274 25.0249C13.5343 25.0141 13.544 25.0052 13.5556 24.9991C13.5671 24.9929 13.5802 24.9897 13.5937 24.9897L23.089 24.9953C23.121 24.9952 23.1523 24.9855 23.1787 24.9674C23.2051 24.9492 23.2254 24.9236 23.2371 24.8937L26.9796 15.2334C26.9837 15.2235 26.9902 15.2147 26.9985 15.2079C27.0068 15.2011 27.0166 15.1965 27.027 15.1946C27.0374 15.1926 27.0481 15.1933 27.0581 15.1966C27.0681 15.2 27.077 15.2058 27.084 15.2136L29.3058 17.6471Z" fill="white"/>
</svg>
